<?xml version="1.0" encoding="UTF-8" standalone="no"?>
<!-- Generator: Adobe Illustrator 15.1.0, SVG Export Plug-In . SVG Version: 6.00 Build 0)  -->

<svg
   xmlns:dc="http://purl.org/dc/elements/1.1/"
   xmlns:cc="http://creativecommons.org/ns#"
   xmlns:rdf="http://www.w3.org/1999/02/22-rdf-syntax-ns#"
   xmlns:svg="http://www.w3.org/2000/svg"
   xmlns="http://www.w3.org/2000/svg"
   xmlns:sodipodi="http://sodipodi.sourceforge.net/DTD/sodipodi-0.dtd"
   xmlns:inkscape="http://www.inkscape.org/namespaces/inkscape"
   version="1.1"
   id="Ebene_1"
   x="0px"
   y="0px"
   width="76.288002"
   height="74.589996"
   viewBox="0 0 76.288002 74.589996"
   enable-background="new 0 0 230 75"
   xml:space="preserve"
   sodipodi:docname="uni-basel-logo.svg"
   inkscape:version="0.92.3 (2405546, 2018-03-11)"><metadata
   id="metadata15"><rdf:RDF><cc:Work
       rdf:about=""><dc:format>image/svg+xml</dc:format><dc:type
         rdf:resource="http://purl.org/dc/dcmitype/StillImage" /><dc:title></dc:title></cc:Work></rdf:RDF></metadata><defs
   id="defs13">
	
	
	
</defs><sodipodi:namedview
   pagecolor="#ffffff"
   bordercolor="#666666"
   borderopacity="1"
   objecttolerance="10"
   gridtolerance="10"
   guidetolerance="10"
   inkscape:pageopacity="0"
   inkscape:pageshadow="2"
   inkscape:window-width="1400"
   inkscape:window-height="773"
   id="namedview11"
   showgrid="false"
   fit-margin-top="0"
   fit-margin-left="0"
   fit-margin-right="0"
   fit-margin-bottom="0"
   inkscape:zoom="1.2695652"
   inkscape:cx="124.84589"
   inkscape:cy="37.09"
   inkscape:window-x="2933"
   inkscape:window-y="176"
   inkscape:window-maximized="0"
   inkscape:current-layer="Ebene_1" />
<path
   inkscape:connector-curvature="0"
   id="path6"
   d="m 40.146,63.119 c -0.672,-0.657 -1.687,0.335 -1.015,0.992 l 4.86,4.751 1.013,-0.988 c 0,0 -4.28,-4.187 -4.858,-4.755 m -7.851,5.745 -1.015,-0.988 4.86,-4.755 c 0.671,-0.656 1.686,0.334 1.015,0.994 -0.576,0.565 -4.86,4.749 -4.86,4.749 M 11.727,35.34 c 0.674,0.658 -0.341,1.65 -1.013,0.994 l -4.86,-4.753 1.012,-0.992 c 0,0 4.28,4.186 4.861,4.751 m -5.871,7.68 1.015,0.992 4.86,-4.753 c 0.671,-0.656 -0.344,-1.648 -1.015,-0.99 -0.58,0.566 -4.86,4.751 -4.86,4.751 M 36.148,11.458 c 0.672,0.66 1.684,-0.33 1.013,-0.988 L 32.3,5.716 31.287,6.71 c 0,0 4.281,4.186 4.861,4.748 M 43.985,5.716 45,6.71 40.142,11.458 c -0.674,0.66 -1.687,-0.33 -1.015,-0.988 0.578,-0.569 4.858,-4.754 4.858,-4.754 m 20.569,29.617 c -0.671,0.658 0.344,1.648 1.015,0.99 L 70.43,31.571 69.417,30.58 c 0,0 -4.281,4.188 -4.863,4.753 m 5.881,7.676 -1.014,0.988 -4.86,-4.75 c -0.672,-0.658 0.341,-1.647 1.012,-0.992 0.582,0.568 4.862,4.754 4.862,4.754 M 23.993,22.473 c 0.672,0.658 -0.343,1.65 -1.015,0.992 L 5.854,6.722 6.869,5.73 c 0,-0.001 16.546,16.177 17.124,16.743 M 69.421,5.722 70.435,6.716 53.309,23.459 c -0.671,0.66 -1.686,-0.334 -1.012,-0.99 C 52.875,21.902 69.421,5.722 69.421,5.722 M 22.978,51.127 c 0.672,-0.656 1.687,0.338 1.013,0.992 L 6.866,68.862 5.854,67.874 c 0,0 16.543,-16.181 17.124,-16.747 m 47.457,16.74 -1.014,0.99 -17.124,-16.741 c -0.674,-0.658 0.341,-1.65 1.012,-0.992 0.58,0.564 17.126,16.743 17.126,16.743 M 23.904,47.239 c 0.671,0.658 -0.344,1.652 -1.015,0.992 0,0 -8.6,-8.407 -9.271,-9.065 -0.673,-0.66 0.341,-1.65 1.012,-0.994 0,0 8.696,8.502 9.274,9.067 M 40.142,13.395 c -0.672,-0.659 -1.687,0.334 -1.013,0.992 0.671,0.656 9.271,9.067 9.271,9.067 0.673,0.654 1.687,-0.334 1.015,-0.992 -0.578,-0.566 -9.273,-9.067 -9.273,-9.067 m 9.273,33.93 c 0.672,0.658 -0.341,1.65 -1.015,0.992 0,0 -8.6,-8.409 -9.271,-9.067 -0.674,-0.658 0.341,-1.65 1.013,-0.992 0,0 8.695,8.503 9.273,9.067 M 62.587,39.25 c 0.672,-0.658 -0.341,-1.65 -1.015,-0.992 -0.671,0.658 -9.271,9.067 -9.271,9.067 -0.674,0.658 0.341,1.648 1.012,0.992 0.581,-0.568 9.274,-9.067 9.274,-9.067 M 27.882,23.451 c -0.671,0.657 -1.687,-0.335 -1.015,-0.989 0,0 8.602,-8.412 9.273,-9.067 0.671,-0.659 1.686,0.334 1.013,0.989 0.001,0 -8.693,8.5 -9.271,9.067 m 9.272,15.799 c 0.673,-0.658 -0.341,-1.65 -1.013,-0.992 -0.672,0.658 -9.273,9.067 -9.273,9.067 -0.672,0.658 0.344,1.648 1.015,0.992 0.577,-0.568 9.271,-9.067 9.271,-9.067 M 23.997,27.265 c 0.674,-0.658 -0.34,-1.65 -1.012,-0.992 0,0 -8.603,8.409 -9.274,9.067 -0.671,0.658 0.341,1.648 1.015,0.992 -0.001,0 8.694,-8.502 9.271,-9.067 m 16.147,33.928 c -0.674,0.658 -1.687,-0.334 -1.015,-0.99 0.671,-0.659 9.274,-9.067 9.274,-9.067 0.671,-0.658 1.687,0.334 1.012,0.99 -0.578,0.568 -9.271,9.067 -9.271,9.067 m 9.271,-33.928 c 0.674,-0.658 -0.341,-1.65 -1.012,-0.992 0,0 -8.603,8.409 -9.274,9.067 -0.671,0.658 0.341,1.648 1.015,0.992 0,0 8.693,-8.502 9.271,-9.067 m 13.172,8.075 c 0.672,0.658 -0.341,1.65 -1.015,0.994 -0.671,-0.66 -9.271,-9.069 -9.271,-9.069 -0.674,-0.654 0.341,-1.65 1.012,-0.99 0.581,0.564 9.274,9.065 9.274,9.065 M 27.882,51.138 c -0.671,-0.658 -1.687,0.334 -1.015,0.992 0,0 8.602,8.409 9.273,9.067 0.671,0.658 1.686,-0.336 1.013,-0.992 0.001,0 -8.693,-8.503 -9.271,-9.067 M 37.154,35.34 c 0.673,0.658 -0.341,1.65 -1.013,0.994 -0.671,-0.66 -9.273,-9.069 -9.273,-9.069 -0.672,-0.654 0.344,-1.65 1.015,-0.99 0.577,0.564 9.271,9.065 9.271,9.065 M 0,49.023 v 1.404 h 22.681 c 0.952,0 0.952,-1.404 0,-1.404 H 0 Z m 76.288,0 v 1.404 H 53.604 c -0.952,0 -0.952,-1.404 0,-1.404 z M 0,24.16 v 1.402 h 22.681 c 0.952,0 0.952,-1.402 0,-1.402 z m 76.288,0 v 1.402 H 53.604 c -0.952,0 -0.952,-1.402 0,-1.402 z M 28.176,49.023 c -0.949,0 -0.949,1.404 0,1.404 H 48.11 c 0.949,0 0.949,-1.404 0,-1.404 H 28.176 Z M 48.11,24.16 c 0.949,0 0.949,1.402 0,1.402 H 28.176 c -0.949,0 -0.949,-1.402 0,-1.402 z m 2.031,50.43 h 1.432 V 52.412 c 0,-0.929 -1.432,-0.929 -1.432,0 z m 0,-74.59 h 1.432 v 22.176 c 0,0.931 -1.432,0.931 -1.432,0 z m 0,47.039 c 0,0.931 1.432,0.931 1.432,0 V 27.551 c 0,-0.931 -1.432,-0.931 -1.432,0 z m -25.429,5.373 c 0,-0.929 1.434,-0.929 1.434,0 V 74.59 h -1.434 z m 0,-30.236 c 0,0.931 1.432,0.931 1.432,0 V 0 h -1.432 z m 0,5.375 c 0,-0.931 1.432,-0.931 1.432,0 v 19.488 c 0,0.931 -1.432,0.931 -1.432,0 z" />
</svg>